<svg width="262" height="258" viewBox="0 0 262 258" fill="none" xmlns="http://www.w3.org/2000/svg">
<path d="M240.808 198.004L244.651 212.156C245.74 216.165 248.012 219.16 251.466 221.139C254.921 223.118 258.648 223.56 262.645 222.465L276.797 218.622C280.806 217.533 283.801 215.261 285.78 211.806C287.759 208.351 288.201 204.625 287.106 200.628L256.364 87.4154L203.589 10.576C201.021 6.71486 197.559 3.98276 193.204 2.37975C188.848 0.776732 184.425 0.584939 179.934 1.80437L24.2673 44.0746C19.786 45.2915 16.0673 47.6941 13.1113 51.2826C10.1552 54.871 8.5508 58.9788 8.2979 63.606L1.6362 156.585L32.3782 269.797C33.467 273.807 35.7341 276.802 39.1795 278.784C42.625 280.766 46.356 281.207 50.3725 280.106L64.524 276.263C68.5336 275.174 71.528 272.902 73.5073 269.448C75.4866 265.993 75.9284 262.266 74.8327 258.269L70.99 244.117L240.808 198.004ZM209.054 69.872L33.5749 117.522L36.9058 71.0327L182.666 31.4524L209.054 69.872ZM208.053 161.314C202.156 162.915 196.581 162.21 191.327 159.2C186.072 156.19 182.65 151.74 181.061 145.851C179.46 139.954 180.165 134.379 183.175 129.124C186.185 123.87 190.635 120.448 196.524 118.859C202.421 117.258 207.996 117.963 213.251 120.973C218.505 123.983 221.927 128.433 223.516 134.322C225.117 140.219 224.412 145.794 221.402 151.049C218.392 156.303 213.942 159.725 208.053 161.314ZM80.689 195.899C74.7926 197.5 69.2172 196.795 63.9628 193.785C58.7085 190.775 55.2868 186.325 53.6976 180.435C52.0965 174.539 52.801 168.964 55.8111 163.709C58.8213 158.455 63.2712 155.033 69.1608 153.444C75.0573 151.843 80.6326 152.547 85.887 155.558C91.1413 158.568 94.563 163.018 96.1522 168.907C97.7533 174.804 97.0488 180.379 94.0387 185.633C91.0285 190.888 86.5786 194.309 80.689 195.899Z" fill="white" fill-opacity="0.03"/>
<path d="M240.808 198.004L244.651 212.156C245.74 216.165 248.012 219.16 251.466 221.139C254.921 223.118 258.648 223.56 262.645 222.465L276.797 218.622C280.806 217.533 283.801 215.261 285.78 211.806C287.759 208.351 288.201 204.625 287.106 200.628L256.364 87.4154L203.589 10.576C201.021 6.71486 197.559 3.98276 193.204 2.37975C188.848 0.776732 184.425 0.584939 179.934 1.80437L24.2673 44.0746C19.786 45.2915 16.0673 47.6941 13.1113 51.2826C10.1552 54.871 8.5508 58.9788 8.2979 63.606L1.6362 156.585L32.3782 269.797C33.467 273.807 35.7341 276.802 39.1795 278.784C42.625 280.766 46.356 281.207 50.3725 280.106L64.524 276.263C68.5336 275.174 71.528 272.902 73.5073 269.448C75.4866 265.993 75.9284 262.266 74.8327 258.269L70.99 244.117L240.808 198.004ZM209.054 69.872L33.5749 117.522L36.9058 71.0327L182.666 31.4524L209.054 69.872ZM208.053 161.314C202.156 162.915 196.581 162.21 191.327 159.2C186.072 156.19 182.65 151.74 181.061 145.851C179.46 139.954 180.165 134.379 183.175 129.124C186.185 123.87 190.635 120.448 196.524 118.859C202.421 117.258 207.996 117.963 213.251 120.973C218.505 123.983 221.927 128.433 223.516 134.322C225.117 140.219 224.412 145.794 221.402 151.049C218.392 156.303 213.942 159.725 208.053 161.314ZM80.689 195.899C74.7926 197.5 69.2172 196.795 63.9628 193.785C58.7085 190.775 55.2868 186.325 53.6976 180.435C52.0965 174.539 52.801 168.964 55.8111 163.709C58.8213 158.455 63.2712 155.033 69.1608 153.444C75.0573 151.843 80.6326 152.547 85.887 155.558C91.1413 158.568 94.563 163.018 96.1522 168.907C97.7533 174.804 97.0488 180.379 94.0387 185.633C91.0285 190.888 86.5786 194.309 80.689 195.899Z" fill="url(#paint0_linear_15290_13017)" fill-opacity="0.15"/>
<path d="M256.776 87.1323L256.824 87.2023L256.846 87.2843L287.588 200.496C288.717 204.616 288.262 208.479 286.214 212.055L285.78 211.806L286.214 212.055C284.166 215.63 281.059 217.982 276.928 219.104L262.777 222.947C258.657 224.076 254.793 223.621 251.218 221.573C247.643 219.525 245.29 216.418 244.168 212.287L240.457 198.618L71.6035 244.469L75.315 258.137C76.4442 262.257 75.9895 266.121 73.9411 269.696C71.8928 273.271 68.7864 275.624 64.655 276.746L50.5046 280.588C46.3664 281.722 42.4973 281.269 38.9303 279.218C35.3644 277.167 33.0174 274.059 31.8957 269.928L1.15367 156.716L1.1314 156.634L1.13748 156.549L7.79865 63.5787C7.79873 63.5773 7.7988 63.576 7.79887 63.5746C8.05832 58.8423 9.70262 54.6341 12.7253 50.9647C15.7471 47.2964 19.5548 44.8361 24.1362 43.5921L179.803 1.32184C184.394 0.0752892 188.923 0.271552 193.376 1.91052C197.83 3.54971 201.377 6.34808 204.003 10.296C204.004 10.2971 204.005 10.2981 204.005 10.2991L256.776 87.1323ZM196.655 119.342L196.655 119.342C190.892 120.897 186.552 124.235 183.609 129.373C180.665 134.511 179.977 139.95 181.544 145.72L181.544 145.72C183.099 151.483 186.437 155.823 191.575 158.766C196.713 161.71 202.152 162.398 207.922 160.831L207.922 160.831C213.685 159.276 218.025 155.938 220.968 150.8C223.912 145.662 224.6 140.223 223.033 134.453L223.033 134.453C221.478 128.69 218.14 124.35 213.002 121.407C207.864 118.463 202.425 117.775 196.655 119.342ZM69.2918 153.927L69.291 153.927C63.5287 155.482 59.1885 158.82 56.245 163.958C53.3014 169.096 52.6134 174.535 54.1802 180.304L54.1804 180.305C55.7352 186.068 59.0733 190.408 64.2114 193.351C69.3495 196.295 74.7882 196.983 80.558 195.416L80.5588 195.416C86.3211 193.861 90.6613 190.523 93.6048 185.385C96.5484 180.247 97.2364 174.808 95.6697 169.038L95.6694 169.037C94.1146 163.275 90.7765 158.935 85.6384 155.991C80.5003 153.048 75.0616 152.36 69.2918 153.927ZM34.124 116.855L208.243 69.5742L182.455 32.0279L37.3792 71.4222L34.124 116.855Z" stroke="url(#paint1_radial_15290_13017)" stroke-opacity="0.35"/>
<defs>
<linearGradient id="paint0_linear_15290_13017" x1="-0.840619" y1="45.8234" x2="150.356" y2="144.716" gradientUnits="userSpaceOnUse">
<stop stop-color="white"/>
<stop offset="0.583666" stop-color="white" stop-opacity="0.3"/>
<stop offset="0.96124" stop-color="white" stop-opacity="0"/>
</linearGradient>
<radialGradient id="paint1_radial_15290_13017" cx="0" cy="0" r="1" gradientUnits="userSpaceOnUse" gradientTransform="translate(132.843 136.152) rotate(26.4288) scale(126.222 125.289)">
<stop stop-color="white"/>
<stop offset="1" stop-color="white" stop-opacity="0"/>
</radialGradient>
</defs>
</svg>
