<svg width="305" height="308" viewBox="0 0 305 308" fill="none" xmlns="http://www.w3.org/2000/svg">
<path d="M232.49 70.2345C208.603 46.3479 196.66 34.4046 181.827 34.4046C166.981 34.4046 155.037 46.3479 131.165 70.2345L70.3471 131.038C46.4742 154.911 34.5309 166.854 34.5309 181.701C34.5309 196.534 46.4743 208.477 70.3609 232.364C94.2475 256.25 106.191 268.194 121.024 268.194C135.87 268.194 147.814 256.25 171.687 232.364L232.504 171.56C256.363 147.687 268.32 135.744 268.32 120.897C268.32 106.064 256.377 94.1212 232.49 70.2345ZM236.893 196.355L298.233 257.695C302.953 262.415 305.306 264.768 306.723 267.217C308.609 270.484 309.603 274.19 309.603 277.963C309.603 281.736 308.609 285.442 306.723 288.709C305.306 291.158 302.953 293.525 298.233 298.231C293.528 302.937 291.175 305.303 288.712 306.721C285.445 308.607 281.738 309.6 277.966 309.6C274.193 309.6 270.487 308.607 267.219 306.721C264.77 305.303 262.403 302.937 257.698 298.231L196.357 236.891L236.893 196.355Z" fill="white" fill-opacity="0.03"/>
<path d="M232.49 70.2345C208.603 46.3479 196.66 34.4046 181.827 34.4046C166.981 34.4046 155.037 46.3479 131.165 70.2345L70.3471 131.038C46.4742 154.911 34.5309 166.854 34.5309 181.701C34.5309 196.534 46.4743 208.477 70.3609 232.364C94.2475 256.25 106.191 268.194 121.024 268.194C135.87 268.194 147.814 256.25 171.687 232.364L232.504 171.56C256.363 147.687 268.32 135.744 268.32 120.897C268.32 106.064 256.377 94.1212 232.49 70.2345ZM236.893 196.355L298.233 257.695C302.953 262.415 305.306 264.768 306.723 267.217C308.609 270.484 309.603 274.19 309.603 277.963C309.603 281.736 308.609 285.442 306.723 288.709C305.306 291.158 302.953 293.525 298.233 298.231C293.528 302.937 291.175 305.303 288.712 306.721C285.445 308.607 281.738 309.6 277.966 309.6C274.193 309.6 270.487 308.607 267.219 306.721C264.77 305.303 262.403 302.937 257.698 298.231L196.357 236.891L236.893 196.355Z" fill="url(#paint0_linear_8003_57531)" fill-opacity="0.15"/>
<path d="M69.9936 130.685L70.3471 131.038L69.9936 130.685L130.811 69.8811C130.811 69.881 130.811 69.881 130.811 69.8809C142.737 57.9477 151.719 48.9614 159.577 42.9646C167.448 36.9589 174.251 33.9046 181.827 33.9046C189.397 33.9046 196.197 36.959 204.067 42.9646C211.919 48.9565 220.896 57.9332 232.815 69.8523L232.844 69.881L232.873 69.9099C244.792 81.8288 253.768 90.8055 259.76 98.6578C265.766 106.528 268.82 113.328 268.82 120.897C268.82 128.474 265.762 135.277 259.757 143.147C253.781 150.978 244.841 159.923 232.985 171.786L232.858 171.914L232.857 171.914L172.04 232.717C172.04 232.717 172.04 232.717 172.04 232.717C160.114 244.651 151.132 253.637 143.274 259.634C135.403 265.639 128.6 268.694 121.024 268.694C113.454 268.694 106.654 265.639 98.7842 259.634C90.9317 253.642 81.955 244.665 70.0358 232.746L70.0074 232.717L69.9792 232.689C58.0599 220.77 49.083 211.793 43.0909 203.94C37.0854 196.07 34.0309 189.271 34.0309 181.701C34.0309 174.124 37.0853 167.321 43.0892 159.451C49.0795 151.599 58.0529 142.625 69.9653 130.713L69.9936 130.685ZM236.54 196.001L236.893 195.648L237.247 196.001L298.587 257.342L298.666 257.421C303.311 262.066 305.706 264.46 307.156 266.966L307.156 266.967C309.086 270.31 310.103 274.103 310.103 277.963C310.103 281.824 309.086 285.616 307.156 288.959L307.156 288.96C305.697 291.48 303.285 293.901 298.586 298.585L298.335 298.836C293.818 303.354 291.45 305.722 288.961 307.154C285.618 309.084 281.826 310.1 277.966 310.1C274.105 310.1 270.313 309.084 266.969 307.154L266.969 307.153C264.463 305.703 262.054 303.295 257.423 298.663L257.344 298.584L196.004 237.244L195.65 236.891L196.004 236.537L236.54 196.001Z" stroke="url(#paint1_radial_8003_57531)" stroke-opacity="0.35"/>
<path d="M222.294 181.77L222.239 181.701L181.703 222.237L181.772 222.292L222.294 181.756V181.77ZM66.4804 105.721C64.7498 102.495 63.8717 98.8806 63.9295 95.2204C63.9873 91.5603 64.979 87.9755 66.8106 84.806C68.2278 82.3568 70.5945 80.0039 75.3003 75.2982C80.0061 70.5786 82.3727 68.2257 84.8219 66.8085C87.9897 64.9794 91.572 63.989 95.2295 63.9312C98.887 63.8735 102.499 64.7501 105.723 66.4783L66.4804 105.721Z" fill="white" fill-opacity="0.03"/>
<path d="M222.294 181.77L222.239 181.701L181.703 222.237L181.772 222.292L222.294 181.756V181.77ZM66.4804 105.721C64.7498 102.495 63.8717 98.8806 63.9295 95.2204C63.9873 91.5603 64.979 87.9755 66.8106 84.806C68.2278 82.3568 70.5945 80.0039 75.3003 75.2982C80.0061 70.5786 82.3727 68.2257 84.8219 66.8085C87.9897 64.9794 91.572 63.989 95.2295 63.9312C98.887 63.8735 102.499 64.7501 105.723 66.4783L66.4804 105.721Z" fill="url(#paint2_linear_8003_57531)" fill-opacity="0.11"/>
<defs>
<linearGradient id="paint0_linear_8003_57531" x1="62.2882" y1="28.6667" x2="204.022" y2="170.4" gradientUnits="userSpaceOnUse">
<stop stop-color="white"/>
<stop offset="0.583666" stop-color="white" stop-opacity="0.3"/>
<stop offset="0.96124" stop-color="white" stop-opacity="0"/>
</linearGradient>
<radialGradient id="paint1_radial_8003_57531" cx="0" cy="0" r="1" gradientUnits="userSpaceOnUse" gradientTransform="translate(172.067 172.002) rotate(45) scale(139.065 139.002)">
<stop stop-color="white"/>
<stop offset="1" stop-color="white" stop-opacity="0"/>
</radialGradient>
<linearGradient id="paint2_linear_8003_57531" x1="79.9076" y1="60.6266" x2="161.469" y2="142.227" gradientUnits="userSpaceOnUse">
<stop stop-color="white"/>
<stop offset="0.583666" stop-color="white" stop-opacity="0.3"/>
<stop offset="0.96124" stop-color="white" stop-opacity="0"/>
</linearGradient>
</defs>
</svg>
