<svg width="311" height="287" viewBox="0 0 311 287" fill="none" xmlns="http://www.w3.org/2000/svg">
<path d="M209.605 212.688L176.857 220.304C167.851 222.398 158.77 216.743 156.675 207.738L42.221 234.354L57.4521 299.85C61.6407 317.862 79.8043 329.171 97.8157 324.983L326.888 271.712C344.9 267.523 356.209 249.359 352.021 231.348L336.789 165.852L222.171 192.507C224.266 201.512 218.611 210.594 209.605 212.688ZM289.953 38.6677L224.457 53.8988C216.042 17.7122 179.916 -4.7813 143.73 3.63392C107.543 12.0491 85.0498 48.1746 93.465 84.3611L27.9689 99.5923C9.95751 103.781 -1.35209 121.944 2.83647 139.956L14.2598 189.078C18.4865 207.253 36.4483 218.437 54.6234 214.21L152.868 191.364L149.06 174.99C146.965 165.984 152.62 156.902 161.626 154.808L194.374 147.192C203.38 145.098 212.462 150.753 214.556 159.758L218.364 176.133L316.608 153.286C334.619 149.097 345.929 130.934 341.74 112.922L330.317 63.8001C326.128 45.7887 307.965 34.4791 289.953 38.6677ZM126.213 76.7456C122.024 58.7341 133.334 40.5705 151.345 36.3819C169.357 32.1934 187.521 43.503 191.709 61.5144L126.049 76.7836L126.213 76.7456Z" fill="white" fill-opacity="0.03"/>
<path d="M209.605 212.688L176.857 220.304C167.851 222.398 158.77 216.743 156.675 207.738L42.221 234.354L57.4521 299.85C61.6407 317.862 79.8043 329.171 97.8157 324.983L326.888 271.712C344.9 267.523 356.209 249.359 352.021 231.348L336.789 165.852L222.171 192.507C224.266 201.512 218.611 210.594 209.605 212.688ZM289.953 38.6677L224.457 53.8988C216.042 17.7122 179.916 -4.7813 143.73 3.63392C107.543 12.0491 85.0498 48.1746 93.465 84.3611L27.9689 99.5923C9.95751 103.781 -1.35209 121.944 2.83647 139.956L14.2598 189.078C18.4865 207.253 36.4483 218.437 54.6234 214.21L152.868 191.364L149.06 174.99C146.965 165.984 152.62 156.902 161.626 154.808L194.374 147.192C203.38 145.098 212.462 150.753 214.556 159.758L218.364 176.133L316.608 153.286C334.619 149.097 345.929 130.934 341.74 112.922L330.317 63.8001C326.128 45.7887 307.965 34.4791 289.953 38.6677ZM126.213 76.7456C122.024 58.7341 133.334 40.5705 151.345 36.3819C169.357 32.1934 187.521 43.503 191.709 61.5144L126.049 76.7836L126.213 76.7456Z" fill="url(#paint0_linear_15290_11332)" fill-opacity="0.15"/>
<path d="M157.162 207.624L157.049 207.137L156.562 207.251L42.1077 233.867L41.6207 233.98L41.734 234.467L56.9651 299.963C61.2162 318.244 79.6486 329.721 97.929 325.47L327.001 272.199C345.282 267.948 356.759 249.515 352.508 231.235L337.276 165.739L337.163 165.252L336.676 165.365L222.058 192.02L221.571 192.133L221.684 192.62C223.716 201.357 218.229 210.17 209.492 212.201L176.744 219.817C168.007 221.849 159.194 216.361 157.162 207.624ZM92.8665 83.987L27.8557 99.1053C9.57529 103.356 -1.90165 121.789 2.34947 140.069L13.7728 189.191C18.062 207.635 36.2926 218.987 54.7367 214.697L152.981 191.851L153.468 191.737L153.355 191.25L149.547 174.876C147.515 166.14 153.002 157.327 161.739 155.295L194.487 147.679C203.224 145.648 212.037 151.135 214.069 159.872L217.877 176.246L217.99 176.733L218.477 176.62L316.721 153.773C335.001 149.522 346.478 131.089 342.227 112.809L330.804 63.6869C326.553 45.4065 308.12 33.9295 289.84 38.1807L224.829 53.299C216.142 17.1287 179.91 -5.29306 143.617 3.14691C107.324 11.5869 84.7025 47.695 92.8665 83.987ZM126.59 76.1444C122.779 58.563 133.879 40.9572 151.459 36.869C169.039 32.7807 186.768 43.6822 191.105 61.1415L126.59 76.1444Z" stroke="url(#paint1_radial_15290_11332)" stroke-opacity="0.35"/>
<defs>
<linearGradient id="paint0_linear_15290_11332" x1="272.995" y1="-32.9044" x2="161.067" y2="169.996" gradientUnits="userSpaceOnUse">
<stop stop-color="white"/>
<stop offset="0.583666" stop-color="white" stop-opacity="0.3"/>
<stop offset="0.96124" stop-color="white" stop-opacity="0"/>
</linearGradient>
<radialGradient id="paint1_radial_15290_11332" cx="0" cy="0" r="1" gradientUnits="userSpaceOnUse" gradientTransform="translate(178 151) rotate(124.934) scale(161.67 160.697)">
<stop stop-color="white"/>
<stop offset="1" stop-color="white" stop-opacity="0"/>
</radialGradient>
</defs>
</svg>
